<svg xmlns="http://www.w3.org/2000/svg" width="632" height="516" viewBox="0 0 632 516">
<rect x="0" y="0" width="632" height="258" fill="#eef1f5"/>
<text x="12" y="20" font-family="system-ui, 'Segoe UI', 'Hiragino Sans', 'Noto Sans JP', 'Yu Gothic UI', sans-serif" font-size="14" font-weight="700" fill="#1f2937">ライトの配色</text>
<rect x="30.0" y="30" width="40" height="40" fill="#7d8fa3"/><polygon points="30.0,30 70.0,30 67.5,32.5 32.5,32.5 32.5,67.5 30.0,70" fill="rgba(255,255,255,0.35)"/><polygon points="70.0,70 30.0,70 32.5,67.5 67.5,67.5 67.5,32.5 70.0,30" fill="rgba(0,0,0,0.30)"/>
<text x="50.0" y="86" text-anchor="middle" font-family="system-ui, 'Segoe UI', 'Hiragino Sans', 'Noto Sans JP', 'Yu Gothic UI', sans-serif" font-size="11" fill="#4b5563">A 未開放</text>
<rect x="106.0" y="30" width="40" height="40" fill="#6c7d90"/><polygon points="106.0,30 146.0,30 143.5,32.5 108.5,32.5 108.5,67.5 106.0,70" fill="rgba(0,0,0,0.30)"/><polygon points="146.0,70 106.0,70 108.5,67.5 143.5,67.5 143.5,32.5 146.0,30" fill="rgba(255,255,255,0.30)"/>
<text x="126.0" y="86" text-anchor="middle" font-family="system-ui, 'Segoe UI', 'Hiragino Sans', 'Noto Sans JP', 'Yu Gothic UI', sans-serif" font-size="11" fill="#4b5563">B 押下中</text>
<rect x="182.0" y="30" width="40" height="40" fill="#ffffff"/><rect x="182.0" y="30" width="40" height="40" fill="none" stroke="#c3cbd4" stroke-width="1"/>
<text x="202.0" y="86" text-anchor="middle" font-family="system-ui, 'Segoe UI', 'Hiragino Sans', 'Noto Sans JP', 'Yu Gothic UI', sans-serif" font-size="11" fill="#4b5563">C 開放済み 0</text>
<rect x="258.0" y="30" width="40" height="40" fill="#ffffff"/><rect x="258.0" y="30" width="40" height="40" fill="none" stroke="#c3cbd4" stroke-width="1"/><text x="278.0" y="50.0" dy="0.35em" text-anchor="middle" font-family="system-ui, 'Segoe UI', 'Hiragino Sans', 'Noto Sans JP', 'Yu Gothic UI', sans-serif" font-weight="700" font-size="24.0" fill="#1d4ed8">1</text>
<text x="278.0" y="86" text-anchor="middle" font-family="system-ui, 'Segoe UI', 'Hiragino Sans', 'Noto Sans JP', 'Yu Gothic UI', sans-serif" font-size="11" fill="#4b5563">D 数字 1</text>
<rect x="334.0" y="30" width="40" height="40" fill="#ffffff"/><rect x="334.0" y="30" width="40" height="40" fill="none" stroke="#c3cbd4" stroke-width="1"/><text x="354.0" y="50.0" dy="0.35em" text-anchor="middle" font-family="system-ui, 'Segoe UI', 'Hiragino Sans', 'Noto Sans JP', 'Yu Gothic UI', sans-serif" font-weight="700" font-size="24.0" fill="#15803d">2</text>
<text x="354.0" y="86" text-anchor="middle" font-family="system-ui, 'Segoe UI', 'Hiragino Sans', 'Noto Sans JP', 'Yu Gothic UI', sans-serif" font-size="11" fill="#4b5563">D 数字 2</text>
<rect x="410.0" y="30" width="40" height="40" fill="#ffffff"/><rect x="410.0" y="30" width="40" height="40" fill="none" stroke="#c3cbd4" stroke-width="1"/><text x="430.0" y="50.0" dy="0.35em" text-anchor="middle" font-family="system-ui, 'Segoe UI', 'Hiragino Sans', 'Noto Sans JP', 'Yu Gothic UI', sans-serif" font-weight="700" font-size="24.0" fill="#c62828">3</text>
<text x="430.0" y="86" text-anchor="middle" font-family="system-ui, 'Segoe UI', 'Hiragino Sans', 'Noto Sans JP', 'Yu Gothic UI', sans-serif" font-size="11" fill="#4b5563">D 数字 3</text>
<rect x="486.0" y="30" width="40" height="40" fill="#ffffff"/><rect x="486.0" y="30" width="40" height="40" fill="none" stroke="#c3cbd4" stroke-width="1"/><text x="506.0" y="50.0" dy="0.35em" text-anchor="middle" font-family="system-ui, 'Segoe UI', 'Hiragino Sans', 'Noto Sans JP', 'Yu Gothic UI', sans-serif" font-weight="700" font-size="24.0" fill="#1e3a8a">4</text>
<text x="506.0" y="86" text-anchor="middle" font-family="system-ui, 'Segoe UI', 'Hiragino Sans', 'Noto Sans JP', 'Yu Gothic UI', sans-serif" font-size="11" fill="#4b5563">D 数字 4</text>
<rect x="562.0" y="30" width="40" height="40" fill="#ffffff"/><rect x="562.0" y="30" width="40" height="40" fill="none" stroke="#c3cbd4" stroke-width="1"/><text x="582.0" y="50.0" dy="0.35em" text-anchor="middle" font-family="system-ui, 'Segoe UI', 'Hiragino Sans', 'Noto Sans JP', 'Yu Gothic UI', sans-serif" font-weight="700" font-size="24.0" fill="#8b1a1a">5</text>
<text x="582.0" y="86" text-anchor="middle" font-family="system-ui, 'Segoe UI', 'Hiragino Sans', 'Noto Sans JP', 'Yu Gothic UI', sans-serif" font-size="11" fill="#4b5563">D 数字 5</text>
<rect x="30.0" y="104" width="40" height="40" fill="#ffffff"/><rect x="30.0" y="104" width="40" height="40" fill="none" stroke="#c3cbd4" stroke-width="1"/><text x="50.0" y="124.0" dy="0.35em" text-anchor="middle" font-family="system-ui, 'Segoe UI', 'Hiragino Sans', 'Noto Sans JP', 'Yu Gothic UI', sans-serif" font-weight="700" font-size="24.0" fill="#0f766e">6</text>
<text x="50.0" y="160" text-anchor="middle" font-family="system-ui, 'Segoe UI', 'Hiragino Sans', 'Noto Sans JP', 'Yu Gothic UI', sans-serif" font-size="11" fill="#4b5563">D 数字 6</text>
<rect x="106.0" y="104" width="40" height="40" fill="#ffffff"/><rect x="106.0" y="104" width="40" height="40" fill="none" stroke="#c3cbd4" stroke-width="1"/><text x="126.0" y="124.0" dy="0.35em" text-anchor="middle" font-family="system-ui, 'Segoe UI', 'Hiragino Sans', 'Noto Sans JP', 'Yu Gothic UI', sans-serif" font-weight="700" font-size="24.0" fill="#1f2937">7</text>
<text x="126.0" y="160" text-anchor="middle" font-family="system-ui, 'Segoe UI', 'Hiragino Sans', 'Noto Sans JP', 'Yu Gothic UI', sans-serif" font-size="11" fill="#4b5563">D 数字 7</text>
<rect x="182.0" y="104" width="40" height="40" fill="#ffffff"/><rect x="182.0" y="104" width="40" height="40" fill="none" stroke="#c3cbd4" stroke-width="1"/><text x="202.0" y="124.0" dy="0.35em" text-anchor="middle" font-family="system-ui, 'Segoe UI', 'Hiragino Sans', 'Noto Sans JP', 'Yu Gothic UI', sans-serif" font-weight="700" font-size="24.0" fill="#57606a">8</text>
<text x="202.0" y="160" text-anchor="middle" font-family="system-ui, 'Segoe UI', 'Hiragino Sans', 'Noto Sans JP', 'Yu Gothic UI', sans-serif" font-size="11" fill="#4b5563">D 数字 8</text>
<rect x="258.0" y="104" width="40" height="40" fill="#7d8fa3"/><polygon points="258.0,104 298.0,104 295.5,106.5 260.5,106.5 260.5,141.5 258.0,144" fill="rgba(255,255,255,0.35)"/><polygon points="298.0,144 258.0,144 260.5,141.5 295.5,141.5 295.5,106.5 298.0,104" fill="rgba(0,0,0,0.30)"/><g transform="translate(258.0,104) scale(1.6666666666666667)"><line x1="9" y1="5" x2="9" y2="18" stroke="#1f2937" stroke-width="1.8"/><rect x="5.5" y="17.5" width="9" height="2.2" rx="0.6" fill="#1f2937"/><polygon points="9.9,4.6 18.6,8.5 9.9,12.4" fill="#e0321f" stroke="#ffffff" stroke-width="1.1" stroke-linejoin="round"/></g>
<text x="278.0" y="160" text-anchor="middle" font-family="system-ui, 'Segoe UI', 'Hiragino Sans', 'Noto Sans JP', 'Yu Gothic UI', sans-serif" font-size="11" fill="#4b5563">E 旗</text>
<rect x="334.0" y="104" width="40" height="40" fill="#ffffff"/><rect x="334.0" y="104" width="40" height="40" fill="none" stroke="#c3cbd4" stroke-width="1"/><g transform="translate(334.0,104) scale(1.6666666666666667)"><line x1="20.5" y1="12.0" x2="3.5" y2="12.0" stroke="#1f2937" stroke-width="1.8" stroke-linecap="round"/><line x1="12.0" y1="20.5" x2="12.0" y2="3.5" stroke="#1f2937" stroke-width="1.8" stroke-linecap="round"/><line x1="18.01035" y1="18.01035" x2="5.98965" y2="5.98965" stroke="#1f2937" stroke-width="1.8" stroke-linecap="round"/><line x1="18.01035" y1="5.98965" x2="5.98965" y2="18.01035" stroke="#1f2937" stroke-width="1.8" stroke-linecap="round"/><circle cx="12" cy="12" r="5.6" fill="#1f2937"/><circle cx="10.2" cy="10.2" r="1.5" fill="#ffffff" opacity="0.85"/></g>
<text x="354.0" y="160" text-anchor="middle" font-family="system-ui, 'Segoe UI', 'Hiragino Sans', 'Noto Sans JP', 'Yu Gothic UI', sans-serif" font-size="11" fill="#4b5563">F 地雷</text>
<rect x="410.0" y="104" width="40" height="40" fill="#e5484d"/><rect x="410.0" y="104" width="40" height="40" fill="none" stroke="#c3cbd4" stroke-width="1"/><g transform="translate(410.0,104) scale(1.6666666666666667)"><polygon points="23.00,12.00 18.28,13.68 21.53,17.50 16.60,16.60 17.50,21.53 13.68,18.28 12.00,23.00 10.32,18.28 6.50,21.53 7.40,16.60 2.47,17.50 5.72,13.68 1.00,12.00 5.72,10.32 2.47,6.50 7.40,7.40 6.50,2.47 10.32,5.72 12.00,1.00 13.68,5.72 17.50,2.47 16.60,7.40 21.53,6.50 18.28,10.32" fill="#fff3bf"/></g><g transform="translate(410.0,104) scale(1.6666666666666667)"><line x1="20.5" y1="12.0" x2="3.5" y2="12.0" stroke="#111111" stroke-width="1.8" stroke-linecap="round"/><line x1="12.0" y1="20.5" x2="12.0" y2="3.5" stroke="#111111" stroke-width="1.8" stroke-linecap="round"/><line x1="18.01035" y1="18.01035" x2="5.98965" y2="5.98965" stroke="#111111" stroke-width="1.8" stroke-linecap="round"/><line x1="18.01035" y1="5.98965" x2="5.98965" y2="18.01035" stroke="#111111" stroke-width="1.8" stroke-linecap="round"/><circle cx="12" cy="12" r="5.6" fill="#111111"/><circle cx="10.2" cy="10.2" r="1.5" fill="#ffffff" opacity="0.85"/></g>
<text x="430.0" y="160" text-anchor="middle" font-family="system-ui, 'Segoe UI', 'Hiragino Sans', 'Noto Sans JP', 'Yu Gothic UI', sans-serif" font-size="11" fill="#4b5563">G 踏んだ地雷</text>
<rect x="486.0" y="104" width="40" height="40" fill="#ffffff"/><rect x="486.0" y="104" width="40" height="40" fill="none" stroke="#c3cbd4" stroke-width="1"/><g transform="translate(486.0,104) scale(1.6666666666666667)"><line x1="9" y1="5" x2="9" y2="18" stroke="#1f2937" stroke-width="1.8"/><rect x="5.5" y="17.5" width="9" height="2.2" rx="0.6" fill="#1f2937"/><polygon points="9.9,4.6 18.6,8.5 9.9,12.4" fill="#e0321f" stroke="#ffffff" stroke-width="1.1" stroke-linejoin="round"/></g><g transform="translate(486.0,104) scale(1.6666666666666667)"><path d="M5 5 L19 19 M19 5 L5 19" stroke="#1f2937" stroke-width="2.6" stroke-linecap="round"/></g>
<text x="506.0" y="160" text-anchor="middle" font-family="system-ui, 'Segoe UI', 'Hiragino Sans', 'Noto Sans JP', 'Yu Gothic UI', sans-serif" font-size="11" fill="#4b5563">H 誤った旗</text>
<rect x="562.0" y="104" width="40" height="40" fill="#7d8fa3"/><polygon points="562.0,104 602.0,104 599.5,106.5 564.5,106.5 564.5,141.5 562.0,144" fill="rgba(255,255,255,0.35)"/><polygon points="602.0,144 562.0,144 564.5,141.5 599.5,141.5 599.5,106.5 602.0,104" fill="rgba(0,0,0,0.30)"/><rect x="560.5" y="102.5" width="43" height="43" fill="none" stroke="#0b57d0" stroke-width="3"/><rect x="563.0" y="105" width="38" height="38" fill="none" stroke="#ffffff" stroke-width="2"/>
<text x="582.0" y="160" text-anchor="middle" font-family="system-ui, 'Segoe UI', 'Hiragino Sans', 'Noto Sans JP', 'Yu Gothic UI', sans-serif" font-size="11" fill="#4b5563">I 選択中</text>
<rect x="30.0" y="178" width="40" height="40" fill="#ffffff"/><rect x="30.0" y="178" width="40" height="40" fill="none" stroke="#c3cbd4" stroke-width="1"/><text x="50.0" y="198.0" dy="0.35em" text-anchor="middle" font-family="system-ui, 'Segoe UI', 'Hiragino Sans', 'Noto Sans JP', 'Yu Gothic UI', sans-serif" font-weight="700" font-size="24.0" fill="#c62828">3</text><rect x="28.5" y="176.5" width="43" height="43" fill="none" stroke="#0b57d0" stroke-width="3"/><rect x="31.0" y="179" width="38" height="38" fill="none" stroke="#ffffff" stroke-width="2"/>
<text x="50.0" y="234" text-anchor="middle" font-family="system-ui, 'Segoe UI', 'Hiragino Sans', 'Noto Sans JP', 'Yu Gothic UI', sans-serif" font-size="11" fill="#4b5563">I 選択中（数字）</text>
<rect x="0" y="258" width="632" height="258" fill="#101216"/>
<text x="12" y="278" font-family="system-ui, 'Segoe UI', 'Hiragino Sans', 'Noto Sans JP', 'Yu Gothic UI', sans-serif" font-size="14" font-weight="700" fill="#e6e9ed">ダークの配色</text>
<rect x="30.0" y="288" width="40" height="40" fill="#6b7a8c"/><polygon points="30.0,288 70.0,288 67.5,290.5 32.5,290.5 32.5,325.5 30.0,328" fill="rgba(255,255,255,0.35)"/><polygon points="70.0,328 30.0,328 32.5,325.5 67.5,325.5 67.5,290.5 70.0,288" fill="rgba(0,0,0,0.30)"/>
<text x="50.0" y="344" text-anchor="middle" font-family="system-ui, 'Segoe UI', 'Hiragino Sans', 'Noto Sans JP', 'Yu Gothic UI', sans-serif" font-size="11" fill="#aab3bd">A 未開放</text>
<rect x="106.0" y="288" width="40" height="40" fill="#5d6b7c"/><polygon points="106.0,288 146.0,288 143.5,290.5 108.5,290.5 108.5,325.5 106.0,328" fill="rgba(0,0,0,0.30)"/><polygon points="146.0,328 106.0,328 108.5,325.5 143.5,325.5 143.5,290.5 146.0,288" fill="rgba(255,255,255,0.30)"/>
<text x="126.0" y="344" text-anchor="middle" font-family="system-ui, 'Segoe UI', 'Hiragino Sans', 'Noto Sans JP', 'Yu Gothic UI', sans-serif" font-size="11" fill="#aab3bd">B 押下中</text>
<rect x="182.0" y="288" width="40" height="40" fill="#1b1f24"/><rect x="182.0" y="288" width="40" height="40" fill="none" stroke="#2c323a" stroke-width="1"/>
<text x="202.0" y="344" text-anchor="middle" font-family="system-ui, 'Segoe UI', 'Hiragino Sans', 'Noto Sans JP', 'Yu Gothic UI', sans-serif" font-size="11" fill="#aab3bd">C 開放済み 0</text>
<rect x="258.0" y="288" width="40" height="40" fill="#1b1f24"/><rect x="258.0" y="288" width="40" height="40" fill="none" stroke="#2c323a" stroke-width="1"/><text x="278.0" y="308.0" dy="0.35em" text-anchor="middle" font-family="system-ui, 'Segoe UI', 'Hiragino Sans', 'Noto Sans JP', 'Yu Gothic UI', sans-serif" font-weight="700" font-size="24.0" fill="#6ea8ff">1</text>
<text x="278.0" y="344" text-anchor="middle" font-family="system-ui, 'Segoe UI', 'Hiragino Sans', 'Noto Sans JP', 'Yu Gothic UI', sans-serif" font-size="11" fill="#aab3bd">D 数字 1</text>
<rect x="334.0" y="288" width="40" height="40" fill="#1b1f24"/><rect x="334.0" y="288" width="40" height="40" fill="none" stroke="#2c323a" stroke-width="1"/><text x="354.0" y="308.0" dy="0.35em" text-anchor="middle" font-family="system-ui, 'Segoe UI', 'Hiragino Sans', 'Noto Sans JP', 'Yu Gothic UI', sans-serif" font-weight="700" font-size="24.0" fill="#5fd07a">2</text>
<text x="354.0" y="344" text-anchor="middle" font-family="system-ui, 'Segoe UI', 'Hiragino Sans', 'Noto Sans JP', 'Yu Gothic UI', sans-serif" font-size="11" fill="#aab3bd">D 数字 2</text>
<rect x="410.0" y="288" width="40" height="40" fill="#1b1f24"/><rect x="410.0" y="288" width="40" height="40" fill="none" stroke="#2c323a" stroke-width="1"/><text x="430.0" y="308.0" dy="0.35em" text-anchor="middle" font-family="system-ui, 'Segoe UI', 'Hiragino Sans', 'Noto Sans JP', 'Yu Gothic UI', sans-serif" font-weight="700" font-size="24.0" fill="#ff7070">3</text>
<text x="430.0" y="344" text-anchor="middle" font-family="system-ui, 'Segoe UI', 'Hiragino Sans', 'Noto Sans JP', 'Yu Gothic UI', sans-serif" font-size="11" fill="#aab3bd">D 数字 3</text>
<rect x="486.0" y="288" width="40" height="40" fill="#1b1f24"/><rect x="486.0" y="288" width="40" height="40" fill="none" stroke="#2c323a" stroke-width="1"/><text x="506.0" y="308.0" dy="0.35em" text-anchor="middle" font-family="system-ui, 'Segoe UI', 'Hiragino Sans', 'Noto Sans JP', 'Yu Gothic UI', sans-serif" font-weight="700" font-size="24.0" fill="#b4a7ff">4</text>
<text x="506.0" y="344" text-anchor="middle" font-family="system-ui, 'Segoe UI', 'Hiragino Sans', 'Noto Sans JP', 'Yu Gothic UI', sans-serif" font-size="11" fill="#aab3bd">D 数字 4</text>
<rect x="562.0" y="288" width="40" height="40" fill="#1b1f24"/><rect x="562.0" y="288" width="40" height="40" fill="none" stroke="#2c323a" stroke-width="1"/><text x="582.0" y="308.0" dy="0.35em" text-anchor="middle" font-family="system-ui, 'Segoe UI', 'Hiragino Sans', 'Noto Sans JP', 'Yu Gothic UI', sans-serif" font-weight="700" font-size="24.0" fill="#f59ab0">5</text>
<text x="582.0" y="344" text-anchor="middle" font-family="system-ui, 'Segoe UI', 'Hiragino Sans', 'Noto Sans JP', 'Yu Gothic UI', sans-serif" font-size="11" fill="#aab3bd">D 数字 5</text>
<rect x="30.0" y="362" width="40" height="40" fill="#1b1f24"/><rect x="30.0" y="362" width="40" height="40" fill="none" stroke="#2c323a" stroke-width="1"/><text x="50.0" y="382.0" dy="0.35em" text-anchor="middle" font-family="system-ui, 'Segoe UI', 'Hiragino Sans', 'Noto Sans JP', 'Yu Gothic UI', sans-serif" font-weight="700" font-size="24.0" fill="#3dd6c6">6</text>
<text x="50.0" y="418" text-anchor="middle" font-family="system-ui, 'Segoe UI', 'Hiragino Sans', 'Noto Sans JP', 'Yu Gothic UI', sans-serif" font-size="11" fill="#aab3bd">D 数字 6</text>
<rect x="106.0" y="362" width="40" height="40" fill="#1b1f24"/><rect x="106.0" y="362" width="40" height="40" fill="none" stroke="#2c323a" stroke-width="1"/><text x="126.0" y="382.0" dy="0.35em" text-anchor="middle" font-family="system-ui, 'Segoe UI', 'Hiragino Sans', 'Noto Sans JP', 'Yu Gothic UI', sans-serif" font-weight="700" font-size="24.0" fill="#f1f3f5">7</text>
<text x="126.0" y="418" text-anchor="middle" font-family="system-ui, 'Segoe UI', 'Hiragino Sans', 'Noto Sans JP', 'Yu Gothic UI', sans-serif" font-size="11" fill="#aab3bd">D 数字 7</text>
<rect x="182.0" y="362" width="40" height="40" fill="#1b1f24"/><rect x="182.0" y="362" width="40" height="40" fill="none" stroke="#2c323a" stroke-width="1"/><text x="202.0" y="382.0" dy="0.35em" text-anchor="middle" font-family="system-ui, 'Segoe UI', 'Hiragino Sans', 'Noto Sans JP', 'Yu Gothic UI', sans-serif" font-weight="700" font-size="24.0" fill="#aab3bd">8</text>
<text x="202.0" y="418" text-anchor="middle" font-family="system-ui, 'Segoe UI', 'Hiragino Sans', 'Noto Sans JP', 'Yu Gothic UI', sans-serif" font-size="11" fill="#aab3bd">D 数字 8</text>
<rect x="258.0" y="362" width="40" height="40" fill="#6b7a8c"/><polygon points="258.0,362 298.0,362 295.5,364.5 260.5,364.5 260.5,399.5 258.0,402" fill="rgba(255,255,255,0.35)"/><polygon points="298.0,402 258.0,402 260.5,399.5 295.5,399.5 295.5,364.5 298.0,362" fill="rgba(0,0,0,0.30)"/><g transform="translate(258.0,362) scale(1.6666666666666667)"><line x1="9" y1="5" x2="9" y2="18" stroke="#e6e9ed" stroke-width="1.8"/><rect x="5.5" y="17.5" width="9" height="2.2" rx="0.6" fill="#e6e9ed"/><polygon points="9.9,4.6 18.6,8.5 9.9,12.4" fill="#ff6b5a" stroke="#ffffff" stroke-width="1.1" stroke-linejoin="round"/></g>
<text x="278.0" y="418" text-anchor="middle" font-family="system-ui, 'Segoe UI', 'Hiragino Sans', 'Noto Sans JP', 'Yu Gothic UI', sans-serif" font-size="11" fill="#aab3bd">E 旗</text>
<rect x="334.0" y="362" width="40" height="40" fill="#1b1f24"/><rect x="334.0" y="362" width="40" height="40" fill="none" stroke="#2c323a" stroke-width="1"/><g transform="translate(334.0,362) scale(1.6666666666666667)"><line x1="20.5" y1="12.0" x2="3.5" y2="12.0" stroke="#e6e9ed" stroke-width="1.8" stroke-linecap="round"/><line x1="12.0" y1="20.5" x2="12.0" y2="3.5" stroke="#e6e9ed" stroke-width="1.8" stroke-linecap="round"/><line x1="18.01035" y1="18.01035" x2="5.98965" y2="5.98965" stroke="#e6e9ed" stroke-width="1.8" stroke-linecap="round"/><line x1="18.01035" y1="5.98965" x2="5.98965" y2="18.01035" stroke="#e6e9ed" stroke-width="1.8" stroke-linecap="round"/><circle cx="12" cy="12" r="5.6" fill="#e6e9ed"/><circle cx="10.2" cy="10.2" r="1.5" fill="#ffffff" opacity="0.85"/></g>
<text x="354.0" y="418" text-anchor="middle" font-family="system-ui, 'Segoe UI', 'Hiragino Sans', 'Noto Sans JP', 'Yu Gothic UI', sans-serif" font-size="11" fill="#aab3bd">F 地雷</text>
<rect x="410.0" y="362" width="40" height="40" fill="#e5484d"/><rect x="410.0" y="362" width="40" height="40" fill="none" stroke="#2c323a" stroke-width="1"/><g transform="translate(410.0,362) scale(1.6666666666666667)"><polygon points="23.00,12.00 18.28,13.68 21.53,17.50 16.60,16.60 17.50,21.53 13.68,18.28 12.00,23.00 10.32,18.28 6.50,21.53 7.40,16.60 2.47,17.50 5.72,13.68 1.00,12.00 5.72,10.32 2.47,6.50 7.40,7.40 6.50,2.47 10.32,5.72 12.00,1.00 13.68,5.72 17.50,2.47 16.60,7.40 21.53,6.50 18.28,10.32" fill="#fff3bf"/></g><g transform="translate(410.0,362) scale(1.6666666666666667)"><line x1="20.5" y1="12.0" x2="3.5" y2="12.0" stroke="#111111" stroke-width="1.8" stroke-linecap="round"/><line x1="12.0" y1="20.5" x2="12.0" y2="3.5" stroke="#111111" stroke-width="1.8" stroke-linecap="round"/><line x1="18.01035" y1="18.01035" x2="5.98965" y2="5.98965" stroke="#111111" stroke-width="1.8" stroke-linecap="round"/><line x1="18.01035" y1="5.98965" x2="5.98965" y2="18.01035" stroke="#111111" stroke-width="1.8" stroke-linecap="round"/><circle cx="12" cy="12" r="5.6" fill="#111111"/><circle cx="10.2" cy="10.2" r="1.5" fill="#ffffff" opacity="0.85"/></g>
<text x="430.0" y="418" text-anchor="middle" font-family="system-ui, 'Segoe UI', 'Hiragino Sans', 'Noto Sans JP', 'Yu Gothic UI', sans-serif" font-size="11" fill="#aab3bd">G 踏んだ地雷</text>
<rect x="486.0" y="362" width="40" height="40" fill="#1b1f24"/><rect x="486.0" y="362" width="40" height="40" fill="none" stroke="#2c323a" stroke-width="1"/><g transform="translate(486.0,362) scale(1.6666666666666667)"><line x1="9" y1="5" x2="9" y2="18" stroke="#e6e9ed" stroke-width="1.8"/><rect x="5.5" y="17.5" width="9" height="2.2" rx="0.6" fill="#e6e9ed"/><polygon points="9.9,4.6 18.6,8.5 9.9,12.4" fill="#ff6b5a" stroke="#ffffff" stroke-width="1.1" stroke-linejoin="round"/></g><g transform="translate(486.0,362) scale(1.6666666666666667)"><path d="M5 5 L19 19 M19 5 L5 19" stroke="#e6e9ed" stroke-width="2.6" stroke-linecap="round"/></g>
<text x="506.0" y="418" text-anchor="middle" font-family="system-ui, 'Segoe UI', 'Hiragino Sans', 'Noto Sans JP', 'Yu Gothic UI', sans-serif" font-size="11" fill="#aab3bd">H 誤った旗</text>
<rect x="562.0" y="362" width="40" height="40" fill="#6b7a8c"/><polygon points="562.0,362 602.0,362 599.5,364.5 564.5,364.5 564.5,399.5 562.0,402" fill="rgba(255,255,255,0.35)"/><polygon points="602.0,402 562.0,402 564.5,399.5 599.5,399.5 599.5,364.5 602.0,362" fill="rgba(0,0,0,0.30)"/><rect x="560.5" y="360.5" width="43" height="43" fill="none" stroke="#ffd43b" stroke-width="3"/><rect x="563.0" y="363" width="38" height="38" fill="none" stroke="#101216" stroke-width="2"/>
<text x="582.0" y="418" text-anchor="middle" font-family="system-ui, 'Segoe UI', 'Hiragino Sans', 'Noto Sans JP', 'Yu Gothic UI', sans-serif" font-size="11" fill="#aab3bd">I 選択中</text>
<rect x="30.0" y="436" width="40" height="40" fill="#1b1f24"/><rect x="30.0" y="436" width="40" height="40" fill="none" stroke="#2c323a" stroke-width="1"/><text x="50.0" y="456.0" dy="0.35em" text-anchor="middle" font-family="system-ui, 'Segoe UI', 'Hiragino Sans', 'Noto Sans JP', 'Yu Gothic UI', sans-serif" font-weight="700" font-size="24.0" fill="#ff7070">3</text><rect x="28.5" y="434.5" width="43" height="43" fill="none" stroke="#ffd43b" stroke-width="3"/><rect x="31.0" y="437" width="38" height="38" fill="none" stroke="#101216" stroke-width="2"/>
<text x="50.0" y="492" text-anchor="middle" font-family="system-ui, 'Segoe UI', 'Hiragino Sans', 'Noto Sans JP', 'Yu Gothic UI', sans-serif" font-size="11" fill="#aab3bd">I 選択中（数字）</text>
</svg>
